<?xml version="1.0" standalone="no"?>
<!DOCTYPE svg PUBLIC "-//W3C//DTD SVG 20010904//EN"
 "http://www.w3.org/TR/2001/REC-SVG-20010904/DTD/svg10.dtd">
<svg version="1.0" xmlns="http://www.w3.org/2000/svg"
 width="16.000000pt" height="16.000000pt" viewBox="0 0 16.000000 16.000000"
 preserveAspectRatio="xMidYMid meet">
<metadata>
Created by potrace 1.11, written by Peter Selinger 2001-2013
</metadata>
<g transform="translate(0.000000,16.000000) scale(0.006154,-0.006154)"
fill="#000000" stroke="none">
<path d="M1180 2495 c-8 -2 -49 -9 -90 -15 -232 -38 -459 -157 -636 -334 -170
-170 -279 -371 -330 -606 -26 -118 -26 -362 0 -480 51 -235 160 -436 330 -606
174 -174 386 -287 631 -335 91 -18 339 -18 430 0 245 48 457 161 631 335 170
170 279 371 330 606 26 118 26 362 0 480 -51 235 -160 436 -330 606 -170 170
-369 278 -608 330 -66 14 -321 28 -358 19z m198 -921 c66 -27 112 -82 127
-151 l7 -33 -59 0 -59 0 -14 42 c-12 34 -22 45 -53 57 -49 18 -103 6 -129 -29
-45 -61 -48 -258 -4 -322 28 -43 79 -57 133 -37 31 12 41 23 53 57 l14 42 59
0 59 0 -7 -32 c-22 -103 -107 -168 -218 -168 -144 0 -230 88 -244 248 -6 74 9
177 32 222 20 39 66 81 110 101 50 23 142 25 193 3z m-501 -19 c64 -32 87 -75
81 -147 -4 -35 -13 -57 -32 -77 l-27 -28 36 -36 c35 -35 40 -52 35 -122 -3
-41 -32 -86 -72 -110 -28 -17 -54 -20 -190 -23 l-158 -4 0 286 0 286 138 0
c128 0 142 -2 189 -25z m932 -155 l106 -174 3 177 2 177 65 0 65 0 0 -285 0
-285 -63 0 -63 0 -110 181 -109 181 -3 -181 -2 -181 -60 0 -60 0 0 285 0 286
61 -3 62 -3 106 -175z"/>
<path d="M670 1415 l0 -75 49 0 c53 0 101 14 113 33 10 15 10 69 0 84 -12 19
-60 33 -113 33 l-49 0 0 -75z"/>
<path d="M670 1175 l0 -75 63 0 c34 0 73 6 87 13 22 11 25 19 25 62 0 43 -3
51 -25 62 -14 7 -53 13 -87 13 l-63 0 0 -75z"/>
</g>
</svg>
